{"title":"Man Of Steel 2013 MP4Cam ENGaudio.mp4","uid":8584653,"size":258264181,"categoryP":"video","categoryS":"movies","magnet":"?xt=urn:btih:a363fea4eaec3769ee9609f9aa210975d78f625f&amp;dn=Man+Of+Steel+2013+MP4Cam+ENGaudio.mp4&amp;tr=udp%3A%2F%2Ftracker.openbittorrent.com%3A80&amp;tr=udp%3A%2F%2Fopen.demonii.com%3A1337&amp;tr=udp%3A%2F%2Ftracker.coppersurfer.tk%3A6969&amp;tr=udp%3A%2F%2Fexodus.desync.com%3A6969","seeders":1,"leechers":0,"uploader":"globeplus","files":-1,"time":1371501448,"description":"Man Of Steel MP4Cam ENGaudio.mp4\n\nGeneral\n\nFormat                                   : MPEG-4\nCodec ID                                 : M4V \nFile size                                : 246 MiB\nDuration                                 : 2h 12mn\nOverall bit rate mode                    : Variable\nOverall bit rate                         : 260 Kbps\nMovie name                               : na\nAlbum                                    : na\nPerformer                                : na\nRecorded date                            : na\nEncoded date                             : UTC 2013-06-17 14:36:35\nTagged date                              : UTC 2013-06-17 14:36:35\nComment                                  : na\n\nVideo\n\nID                                       : 1\nFormat                                   : AVC\nFormat/Info                              : Advanced Video Codec\nFormat profile                           : &lt;a class=&quot;__cf_email__&quot; href=&quot;/cdn-cgi/l/email-protection&quot; data-cfemail=&quot;246c4d434c6468150a17&quot;&gt;[email&amp;#160;protected]&lt;/a&gt;&lt;script cf-hash='f9e31' type=&quot;text/javascript&quot;&gt;\n/* &lt;![CDATA[ */!function(){try{var t=&quot;currentScript&quot;in document?document.currentScript:function(){for(var t=document.getElementsByTagName(&quot;script&quot;),e=t.length;e--;)if(t[e].getAttribute(&quot;cf-hash&quot;))return t[e]}();if(t&amp;&amp;t.previousSibling){var e,r,n,i,c=t.previousSibling,a=c.getAttribute(&quot;data-cfemail&quot;);if(a){for(e=&quot;&quot;,r=parseInt(a.substr(0,2),16),n=2;a.length-n;n+=2)i=parseInt(a.substr(n,2),16)^r,e+=String.fromCharCode(i);e=document.createTextNode(e),c.parentNode.replaceChild(e,c)}}}catch(u){}}();/* ]]&gt; */&lt;/script&gt;\nFormat settings, CABAC                   : Yes\nFormat settings, ReFrames                : 2 frames\nCodec ID                                 : avc1\nCodec ID/Info                            : Advanced Video Coding\nDuration                                 : 2h 12mn\nBit rate mode                            : Variable\nBit rate                                 : 210 Kbps\nMaximum bit rate                         : 790 Kbps\nWidth                                    : 352 pixels\nHeight                                   : 240 pixels\nDisplay aspect ratio                     : 3:2\nFrame rate mode                          : Constant\nFrame rate                               : 29.970 fps\nStandard                                 : NTSC\nColor space                              : YUV\nChroma subsampling                       : 4:2:0\nBit depth                                : 8 bits\nScan type                                : Progressive\nBits/(Pixel*Frame)                       : 0.083\nStream size                              : 199 MiB (81%)\nWriting library                          : x264 core 120 r2151 a3f4407\nLanguage                                 : English\n\nAudio\n\nID                                       : 2\nFormat                                   : AAC\nFormat/Info                              : Advanced Audio Codec\nFormat profile                           : HE-AAC / LC\nCodec ID                                 : 40\nDuration                                 : 2h 12mn\nBit rate mode                            : Variable\nBit rate                                 : 48.0 Kbps\nMaximum bit rate                         : 53.0 Kbps\nChannel(s)                               : 2 channels\nChannel positions                        : Front: L R\nSampling rate                            : 48.0 KHz / 24.0 KHz\nCompression mode                         : Lossy\nStream size                              : 45.5 MiB (18%)\nLanguage                                 : English\n\n\nPremise\n\nClark Kent is a humanoid alien who after being transported to Earth from the dying planet of Krypton, was adopted as a child by Jonathan and Martha Kent. Raised with the values of his adoptive parents, he feels alienated because of his unique super powers and struggles to find his own place in life. When the world is attacked, he becomes the hero named Superman to protect Earth and its people from General Zod.\n\n\n\n* enjoy ...","torrent":{"xt":"urn:btih:a363fea4eaec3769ee9609f9aa210975d78f625f","amp;dn":"Man+Of+Steel+2013+MP4Cam+ENGaudio.mp4","amp;tr":["udp%3A%2F%2Ftracker.openbittorrent.com%3A80","udp%3A%2F%2Fopen.demonii.com%3A1337","udp%3A%2F%2Ftracker.coppersurfer.tk%3A6969","udp%3A%2F%2Fexodus.desync.com%3A6969"],"infoHash":"a363fea4eaec3769ee9609f9aa210975d78f625f","infoHashBuffer":{"type":"Buffer","data":[163,99,254,164,234,236,55,105,238,150,9,249,170,33,9,117,215,143,98,95]},"announce":[],"urlList":[]}}